<svg width="55" height="55" viewBox="0 0 55 55" fill="none" xmlns="http://www.w3.org/2000/svg">
<path d="M44.1509 39.4836L33.1509 24.8236C32.9533 24.5663 32.866 24.2411 32.9082 23.9195C32.9504 23.5979 33.1186 23.3062 33.3759 23.1086C33.6331 22.911 33.9583 22.8237 34.28 22.8659C34.6016 22.9081 34.8933 23.0763 35.0909 23.3336L36.0909 24.5336C36.1218 24.5713 36.1607 24.6016 36.2048 24.6225C36.2489 24.6433 36.2971 24.6541 36.3459 24.6541C36.3946 24.6541 36.4428 24.6433 36.4869 24.6225C36.531 24.6016 36.5699 24.5713 36.6009 24.5336L44.1709 14.4636C45.3134 13.0012 45.8473 11.1542 45.6609 9.30776C45.4746 7.46134 44.5826 5.75817 43.1709 4.55357C42.439 3.96265 41.5955 3.52531 40.6908 3.26767C39.7861 3.01003 38.8387 2.93738 37.9053 3.05406C36.9719 3.17073 36.0716 3.47434 35.2581 3.94675C34.4447 4.41916 33.7348 5.05067 33.1709 5.80357L23.4909 18.5736C23.4563 18.6164 23.4095 18.6477 23.3567 18.6632C23.3038 18.6787 23.2475 18.6776 23.1953 18.6602C23.1431 18.6428 23.0974 18.6099 23.0645 18.5658C23.0315 18.5217 23.0128 18.4686 23.0109 18.4136V10.3036C23.0396 8.44678 22.3487 6.6509 21.083 5.29202C19.8174 3.93314 18.075 3.11666 16.2209 3.01357C15.2833 2.98409 14.3493 3.14336 13.4745 3.48192C12.5996 3.82048 11.8018 4.33142 11.1283 4.98439C10.4548 5.63736 9.9194 6.41904 9.55394 7.28298C9.18848 8.14693 9.0004 9.07551 9.00086 10.0136V43.5836C8.97217 45.4404 9.663 47.2362 10.9287 48.5951C12.1944 49.954 13.9367 50.7705 15.7909 50.8736C16.7285 50.9031 17.6624 50.7438 18.5373 50.4052C19.4121 50.0667 20.21 49.5557 20.8834 48.9028C21.5569 48.2498 22.0923 47.4681 22.4578 46.6042C22.8232 45.7402 23.0113 44.8116 23.0109 43.8736V34.6736L33.1009 48.0936C33.6742 48.8554 34.3972 49.4921 35.2254 49.9646C36.0536 50.437 36.9696 50.7353 37.9172 50.8411C38.8648 50.9469 39.824 50.858 40.736 50.5799C41.648 50.3017 42.4936 49.8402 43.2209 49.2236C44.5847 48.0223 45.44 46.3468 45.6128 44.5376C45.7855 42.7283 45.2628 40.9212 44.1509 39.4836Z" fill="#4FBE9F"/>
<path d="M9.00086 39.4036V43.5836C8.97217 45.4404 9.663 47.2362 10.9287 48.5951C12.1944 49.954 13.9367 50.7705 15.7909 50.8736C16.7285 50.903 17.6624 50.7438 18.5373 50.4052C19.4121 50.0667 20.21 49.5557 20.8834 48.9028C21.5569 48.2498 22.0923 47.4681 22.4578 46.6042C22.8232 45.7402 23.0113 44.8116 23.0109 43.8736V34.7036C22.027 33.3988 20.6578 32.4364 19.0969 31.9527C17.536 31.4689 15.8625 31.4883 14.3132 32.008C12.7639 32.5278 11.4173 33.5216 10.464 34.8488C9.51059 36.176 8.99875 37.7694 9.00086 39.4036Z" fill="#09816C"/>
</svg>
