<svg width="160" height="64" viewBox="0 0 160 64" fill="none" xmlns="http://www.w3.org/2000/svg">
<path d="M48.8 44.54L37.8 29.88C37.6024 29.6227 37.5151 29.2975 37.5573 28.9759C37.5995 28.6543 37.7678 28.3626 38.025 28.165C38.2823 27.9674 38.6075 27.8801 38.9291 27.9223C39.2508 27.9645 39.5424 28.1327 39.74 28.39L40.74 29.59C40.771 29.6277 40.8099 29.658 40.854 29.6789C40.8981 29.6997 40.9463 29.7105 40.995 29.7105C41.0438 29.7105 41.092 29.6997 41.1361 29.6789C41.1801 29.658 41.2191 29.6277 41.25 29.59L48.82 19.52C49.9626 18.0577 50.4964 16.2106 50.3101 14.3642C50.1238 12.5178 49.2317 10.8146 47.82 9.61C47.0881 9.01908 46.2446 8.58174 45.3399 8.3241C44.4352 8.06646 43.4879 7.99381 42.5545 8.11048C41.6211 8.22716 40.7207 8.53077 39.9073 9.00318C39.0938 9.47559 38.384 10.1071 37.82 10.86L28.14 23.63C28.1055 23.6728 28.0586 23.7041 28.0058 23.7196C27.953 23.7351 27.8967 23.7341 27.8445 23.7166C27.7923 23.6992 27.7466 23.6663 27.7136 23.6222C27.6807 23.5781 27.662 23.525 27.66 23.47V15.36C27.6887 13.5032 26.9979 11.7073 25.7322 10.3484C24.4665 8.98957 22.7242 8.17309 20.87 8.07C19.9324 8.04052 18.9985 8.19979 18.1236 8.53835C17.2488 8.87691 16.4509 9.38785 15.7774 10.0408C15.104 10.6938 14.5686 11.4755 14.2031 12.3394C13.8377 13.2034 13.6496 14.1319 13.65 15.07V48.64C13.6213 50.4968 14.3122 52.2927 15.5778 53.6516C16.8435 55.0104 18.5859 55.8269 20.44 55.93C21.3776 55.9595 22.3116 55.8002 23.1864 55.4617C24.0613 55.1231 24.8591 54.6122 25.5326 53.9592C26.2061 53.3062 26.7415 52.5245 27.1069 51.6606C27.4724 50.7966 27.6605 49.8681 27.66 48.93V39.73L37.75 53.15C38.3234 53.9119 39.0463 54.5485 39.8745 55.021C40.7027 55.4935 41.6187 55.7918 42.5663 55.8976C43.5139 56.0034 44.4732 55.9145 45.3852 55.6363C46.2972 55.3582 47.1428 54.8966 47.87 54.28C49.2339 53.0788 50.0892 51.4032 50.2619 49.594C50.4347 47.7848 49.912 45.9776 48.8 44.54Z" fill="#4FBE9F"/>
<path d="M13.65 44.46V48.64C13.6213 50.4968 14.3122 52.2927 15.5778 53.6515C16.8435 55.0104 18.5859 55.8269 20.44 55.93C21.3776 55.9595 22.3116 55.8002 23.1864 55.4616C24.0613 55.1231 24.8591 54.6121 25.5326 53.9592C26.2061 53.3062 26.7415 52.5245 27.1069 51.6606C27.4724 50.7966 27.6605 49.8681 27.66 48.93V39.76C26.6762 38.4552 25.307 37.4928 23.7461 37.0091C22.1852 36.5253 20.5117 36.5447 18.9624 37.0645C17.4131 37.5842 16.0665 38.578 15.1131 39.9052C14.1598 41.2324 13.6479 42.8259 13.65 44.46Z" fill="#09816C"/>
<path d="M69.32 43H66.212V23.82H69.32V32.472L72.176 32.248L76.096 23.82H79.652L74.92 33.452L79.848 43H76.236L72.176 34.992L69.32 35.188V43ZM93.8228 33.312V39.696C93.8415 40.1067 93.9442 40.4147 94.1308 40.62C94.3362 40.8067 94.6442 40.928 95.0548 40.984L94.9708 43.308C93.3655 43.308 92.1242 42.9627 91.2468 42.272C89.7535 42.9627 88.2508 43.308 86.7388 43.308C83.9575 43.308 82.5668 41.824 82.5668 38.856C82.5668 37.4373 82.9402 36.4107 83.6868 35.776C84.4522 35.1413 85.6188 34.7587 87.1868 34.628L90.7988 34.32V33.312C90.7988 32.5653 90.6308 32.0427 90.2948 31.744C89.9775 31.4453 89.5015 31.296 88.8668 31.296C87.6722 31.296 86.1788 31.3707 84.3868 31.52L83.4908 31.576L83.3788 29.42C85.4135 28.9347 87.2802 28.692 88.9788 28.692C90.6962 28.692 91.9282 29.0653 92.6748 29.812C93.4402 30.54 93.8228 31.7067 93.8228 33.312ZM87.5508 36.784C86.2628 36.896 85.6188 37.596 85.6188 38.884C85.6188 40.172 86.1882 40.816 87.3268 40.816C88.2602 40.816 89.2495 40.6667 90.2948 40.368L90.7988 40.2V36.476L87.5508 36.784ZM102.106 43H99.0542V29H102.078V29.868C103.441 29.084 104.729 28.692 105.942 28.692C107.809 28.692 109.078 29.224 109.75 30.288C110.441 31.3333 110.786 33.0693 110.786 35.496V43H107.762V35.58C107.762 34.068 107.594 32.9947 107.258 32.36C106.941 31.7253 106.278 31.408 105.27 31.408C104.318 31.408 103.404 31.5947 102.526 31.968L102.106 32.136V43Z" fill="#4FBE9F"/>
<path d="M122.739 43H116.103V23.82H122.739C125.689 23.82 127.705 24.5667 128.787 26.06C129.87 27.5533 130.411 29.896 130.411 33.088C130.411 34.712 130.299 36.0933 130.075 37.232C129.87 38.352 129.497 39.3693 128.955 40.284C127.891 42.0947 125.819 43 122.739 43ZM127.191 33.088C127.191 30.7733 126.902 29.1027 126.323 28.076C125.745 27.0493 124.55 26.536 122.739 26.536H119.211V40.256H122.739C124.587 40.256 125.819 39.5747 126.435 38.212C126.734 37.5213 126.93 36.784 127.023 36C127.135 35.216 127.191 34.2453 127.191 33.088ZM135.833 30.512C136.804 29.2987 138.409 28.692 140.649 28.692C142.889 28.692 144.485 29.2987 145.437 30.512C146.408 31.7253 146.893 33.5453 146.893 35.972C146.893 38.3987 146.426 40.228 145.493 41.46C144.56 42.692 142.945 43.308 140.649 43.308C138.353 43.308 136.738 42.692 135.805 41.46C134.872 40.228 134.405 38.3987 134.405 35.972C134.405 33.5453 134.881 31.7253 135.833 30.512ZM138.129 39.612C138.558 40.3587 139.398 40.732 140.649 40.732C141.9 40.732 142.74 40.3587 143.169 39.612C143.598 38.8653 143.813 37.6427 143.813 35.944C143.813 34.2453 143.58 33.0413 143.113 32.332C142.665 31.6227 141.844 31.268 140.649 31.268C139.454 31.268 138.624 31.6227 138.157 32.332C137.709 33.0413 137.485 34.2453 137.485 35.944C137.485 37.6427 137.7 38.8653 138.129 39.612Z" fill="#09816C"/>
</svg>
